<?xml version="1.0" encoding="UTF-8" standalone="no"?>
<svg
   xmlns:figma="http://www.figma.com/figma/ns"
   xmlns:dc="http://purl.org/dc/elements/1.1/"
   xmlns:cc="http://creativecommons.org/ns#"
   xmlns:rdf="http://www.w3.org/1999/02/22-rdf-syntax-ns#"
   xmlns:svg="http://www.w3.org/2000/svg"
   xmlns="http://www.w3.org/2000/svg"
   xmlns:xlink="http://www.w3.org/1999/xlink"
   xmlns:sodipodi="http://sodipodi.sourceforge.net/DTD/sodipodi-0.dtd"
   xmlns:inkscape="http://www.inkscape.org/namespaces/inkscape"
   width="243"
   height="148"
   viewBox="0 0 243 148"
   version="1.1"
   id="svg2"
   inkscape:version="0.91 r13725"
   sodipodi:docname="arrow.svg">
  <metadata
     id="metadata17">
    <rdf:RDF>
      <cc:Work
         rdf:about="">
        <dc:format>image/svg+xml</dc:format>
        <dc:type
           rdf:resource="http://purl.org/dc/dcmitype/StillImage" />
      </cc:Work>
    </rdf:RDF>
  </metadata>
  <sodipodi:namedview
     pagecolor="#ffffff"
     bordercolor="#666666"
     borderopacity="1"
     objecttolerance="10"
     gridtolerance="10"
     guidetolerance="10"
     inkscape:pageopacity="0"
     inkscape:pageshadow="2"
     inkscape:window-width="640"
     inkscape:window-height="480"
     id="namedview15"
     showgrid="false"
     inkscape:zoom="1.2757202"
     inkscape:cx="46.248387"
     inkscape:cy="74"
     inkscape:window-x="0"
     inkscape:window-y="0"
     inkscape:window-maximized="0"
     inkscape:current-layer="svg2" />
  <title
     id="title4">arrow</title>
  <desc
     id="desc6">Created using Figma</desc>
  <g
     id="Canvas"
     transform="translate(199 155)"
     figma:type="canvas"
     style="fill:#ffffff">
    <g
       id="Arrow"
       style="mix-blend-mode:normal;fill:#ffffff"
       figma:type="vector">
      <use
         xlink:href="#path0_stroke"
         transform="matrix(-1 1.22465e-16 -1.22465e-16 -1 44 -81)"
         style="mix-blend-mode:normal;fill:#ffffff"
         id="use10" />
    </g>
  </g>
  <defs
     id="defs12">
    <path
       id="path0_stroke"
       d="M 240.071 7.07107C 243.976 3.16582 243.976 -3.16582 240.071 -7.07107L 176.431 -70.7107C 172.526 -74.6159 166.195 -74.6159 162.289 -70.7107C 158.384 -66.8054 158.384 -60.4738 162.289 -56.5685L 218.858 0L 162.289 56.5685C 158.384 60.4738 158.384 66.8054 162.289 70.7107C 166.195 74.6159 172.526 74.6159 176.431 70.7107L 240.071 7.07107ZM 0 10L 233 10L 233 -10L 0 -10L 0 10Z" />
  </defs>
</svg>
