<?xml version="1.0" encoding="UTF-8" standalone="no"?>
<svg
   xmlns:figma="http://www.figma.com/figma/ns"
   xmlns:dc="http://purl.org/dc/elements/1.1/"
   xmlns:cc="http://creativecommons.org/ns#"
   xmlns:rdf="http://www.w3.org/1999/02/22-rdf-syntax-ns#"
   xmlns:svg="http://www.w3.org/2000/svg"
   xmlns="http://www.w3.org/2000/svg"
   xmlns:xlink="http://www.w3.org/1999/xlink"
   xmlns:sodipodi="http://sodipodi.sourceforge.net/DTD/sodipodi-0.dtd"
   xmlns:inkscape="http://www.inkscape.org/namespaces/inkscape"
   width="313"
   height="313"
   viewBox="0 0 313 313"
   version="1.1"
   id="svg52"
   inkscape:version="0.91 r13725"
   sodipodi:docname="details.svg">
  <metadata
     id="metadata89">
    <rdf:RDF>
      <cc:Work
         rdf:about="">
        <dc:format>image/svg+xml</dc:format>
        <dc:type
           rdf:resource="http://purl.org/dc/dcmitype/StillImage" />
      </cc:Work>
    </rdf:RDF>
  </metadata>
  <sodipodi:namedview
     pagecolor="#ffffff"
     bordercolor="#666666"
     borderopacity="1"
     objecttolerance="10"
     gridtolerance="10"
     guidetolerance="10"
     inkscape:pageopacity="0"
     inkscape:pageshadow="2"
     inkscape:window-width="640"
     inkscape:window-height="480"
     id="namedview87"
     showgrid="false"
     inkscape:zoom="0.75399361"
     inkscape:cx="27.851695"
     inkscape:cy="156.5"
     inkscape:window-x="20"
     inkscape:window-y="42"
     inkscape:window-maximized="0"
     inkscape:current-layer="svg52" />
  <title
     id="title54">Group</title>
  <desc
     id="desc56">Created using Figma</desc>
  <g
     id="Canvas"
     transform="translate(107 175)"
     figma:type="canvas"
     style="fill:#ffffff">
    <g
       id="Group"
       style="mix-blend-mode:normal;fill:#ffffff"
       figma:type="frame">
      <g
         id="Subtract"
         style="mix-blend-mode:normal;fill:#ffffff"
         figma:type="vector-operation">
        <use
           xlink:href="#path0_fill"
           transform="matrix(1 0 0 1 -19.2046 -127.205)"
           style="mix-blend-mode:normal;fill:#ffffff"
           id="use61" />
      </g>
      <g
         id="g63"
         style="mix-blend-mode:normal;fill:#ffffff"
         figma:type="frame">
        <g
           id="Rectangle"
           style="mix-blend-mode:normal;fill:#ffffff"
           figma:type="vector">
          <use
             xlink:href="#path1_fill"
             transform="matrix(-0.707107 0.707107 -0.707107 -0.707107 205.492 100.723)"
             style="mix-blend-mode:normal;fill:#ffffff"
             id="use66" />
        </g>
        <g
           id="g68"
           style="mix-blend-mode:normal;fill:#ffffff"
           figma:type="vector">
          <use
             xlink:href="#path2_fill"
             transform="matrix(-0.707107 0.707107 -0.707107 -0.707107 114.983 34.9619)"
             style="mix-blend-mode:normal;fill:#ffffff"
             id="use70" />
        </g>
        <g
           id="Ellipse"
           style="mix-blend-mode:normal;fill:#ffffff"
           figma:type="ellipse">
          <mask
             id="mask0_outline_ins">
            <use
               xlink:href="#path3_fill"
               fill="white"
               transform="matrix(0.707107 0.707107 -0.707107 0.707107 6.79542 -221.011)"
               id="use74" />
          </mask>
          <g
             mask="url(#mask0_outline_ins)"
             id="g76"
             style="fill:#ffffff">
            <use
               xlink:href="#path4_stroke_2x"
               transform="matrix(0.707107 0.707107 -0.707107 0.707107 6.79542 -221.011)"
               style="mix-blend-mode:normal;fill:#ffffff"
               id="use78" />
          </g>
        </g>
      </g>
    </g>
  </g>
  <defs
     id="defs80">
    <path
       id="path0_fill"
       fill-rule="evenodd"
       d="M 52 0L 0 0L 7.5 90L 44.5 90L 52 0ZM 43.3333 104L 8.66667 104L 11 132L 41 132L 43.3333 104Z" />
    <path
       id="path1_fill"
       d="M 0 0L 52 0L 41 132L 11 132L 0 0Z" />
    <path
       id="path2_fill"
       d="M 0 0L 17 0L 13.4038 43L 3.59615 43L 0 0Z" />
    <path
       id="path3_fill"
       d="M 226 113C 226 175.408 175.408 226 113 226C 50.5918 226 0 175.408 0 113C 0 50.5918 50.5918 0 113 0C 175.408 0 226 50.5918 226 113Z" />
    <path
       id="path4_stroke_2x"
       d="M 206 113C 206 164.362 164.362 206 113 206L 113 246C 186.454 246 246 186.454 246 113L 206 113ZM 113 206C 61.6375 206 20 164.362 20 113L -20 113C -20 186.454 39.5461 246 113 246L 113 206ZM 20 113C 20 61.6375 61.6375 20 113 20L 113 -20C 39.5461 -20 -20 39.5461 -20 113L 20 113ZM 113 20C 164.362 20 206 61.6375 206 113L 246 113C 246 39.5461 186.454 -20 113 -20L 113 20Z" />
  </defs>
</svg>
