<svg width="254" height="479" viewBox="0 0 254 479" version="1.1" xmlns="http://www.w3.org/2000/svg" xmlns:xlink="http://www.w3.org/1999/xlink" xmlns:figma="http://www.figma.com/figma/ns">
<title>Group</title>
<desc>Created using Figma</desc>
<g id="Canvas" transform="translate(123 244)" figma:type="canvas">
<g id="Group" style="mix-blend-mode:normal;" figma:type="frame">
<g id="Subtract" style="mix-blend-mode:normal;" figma:type="vector-operation">
<use xlink:href="#path0_fill" transform="translate(-111.821 -223)" style="mix-blend-mode:normal;"/>
</g>
<g id="Rectangle" style="mix-blend-mode:normal;" figma:type="vector">
<mask id="mask0_outline_ins">
<use xlink:href="#path1_fill" fill="white" transform="translate(-90 122)"/>
</mask>
<g mask="url(#mask0_outline_ins)">
<use xlink:href="#path2_stroke_2x" transform="translate(-90 122)" style="mix-blend-mode:normal;"/>
</g>
</g>
<g id="Rectangle" style="mix-blend-mode:normal;" figma:type="vector">
<mask id="mask1_outline_ins">
<use xlink:href="#path3_fill" fill="white" transform="translate(-123 -244)"/>
</mask>
<g mask="url(#mask1_outline_ins)">
<use xlink:href="#path4_stroke_2x" transform="translate(-123 -244)" style="mix-blend-mode:normal;"/>
</g>
</g>
</g>
</g>
<defs>
<path id="path0_fill" fill-rule="evenodd" d="M 16.8211 295L 19.8211 295L 19.8211 31L 0 31L 0 105.161L 16.8211 295ZM 31.8211 458L 41.6423 458L 41.6423 403.672L 27.9633 392.855L 25.9479 391.633L 31.8211 458ZM 24.8543 379.275L 21.8211 345L 41.6423 345L 41.6423 390.923L 33.9226 384.818L 33.679 384.626L 33.4134 384.465L 24.8543 379.275ZM 43.3659 405.035L 43.3659 458L 63.187 458L 63.187 426.527L 50.2794 410.503L 43.3659 405.035ZM 63.187 410.586L 57.715 403.793L 57.3629 403.355L 56.9226 403.007L 43.3659 392.286L 43.3659 345L 63.187 345L 63.187 410.586ZM 64.9106 428.667L 64.9106 458L 84.7317 458L 84.7317 425.688L 79.1674 435.472L 75.5356 441.858L 70.9273 436.137L 64.9106 428.667ZM 84.7317 405.461L 74.1067 424.142L 64.9106 412.726L 64.9106 345L 84.7317 345L 84.7317 405.461ZM 86.4553 422.658L 86.4553 458L 106.276 458L 106.276 393.646L 98.8181 400.921L 86.4553 422.658ZM 106.276 379.677L 91.33 394.255L 90.8242 394.749L 90.4749 395.363L 86.4553 402.43L 86.4553 345L 106.276 345L 106.276 379.677ZM 108 391.965L 108 453L 127.821 453L 127.821 376.903L 120.578 379.697L 108 391.965ZM 127.821 366.184L 116.021 370.737L 115.064 371.106L 114.33 371.822L 108 377.996L 108 345L 127.821 345L 127.821 366.184ZM 129.821 376.131L 129.821 453L 149.821 453L 149.821 385.228L 138.439 372.806L 129.821 376.131ZM 149.821 370.426L 143.508 363.535L 141.203 361.021L 138.021 362.249L 129.821 365.412L 129.821 345L 149.821 345L 149.821 370.426ZM 151.09 386.612L 151.09 458L 170.911 458L 170.911 410.046L 156.047 392.022L 151.09 386.612ZM 170.911 394.329L 163.679 385.559L 163.596 385.458L 163.508 385.362L 151.09 371.81L 151.09 345L 170.911 345L 170.911 394.329ZM 172.635 412.136L 172.635 458L 192.456 458L 192.456 403.822L 185.171 416.671L 181.587 422.992L 176.964 417.386L 172.635 412.136ZM 192.456 383.546L 180.055 405.418L 172.635 396.419L 172.635 345L 192.456 345L 192.456 383.546ZM 194.179 400.782L 194.179 453L 200.264 453L 206.85 378.574L 206.703 378.693L 194.179 400.782ZM 208.076 364.724L 199.678 371.513L 198.94 372.11L 198.472 372.936L 194.179 380.506L 194.179 345L 209.821 345L 208.076 364.724ZM 215.724 284.811L 235.545 61.1149L 235.545 0L 215.724 0L 215.724 284.811ZM 194.179 295L 214 295L 214 31L 194.179 31L 194.179 295ZM 192.456 94L 192.456 295L 172.635 295L 172.635 94L 192.456 94ZM 170.911 51L 170.911 295L 151.09 295L 151.09 51L 170.911 51ZM 149.821 18L 149.821 295L 129.821 295L 129.821 18L 149.821 18ZM 127.821 31L 127.821 295L 108 295L 108 31L 127.821 31ZM 106.276 68L 106.276 295L 86.4553 295L 86.4553 68L 106.276 68ZM 84.7317 125L 84.7317 295L 64.9106 295L 64.9106 125L 84.7317 125ZM 63.187 82L 63.187 295L 43.3659 295L 43.3659 82L 63.187 82ZM 41.6423 52L 41.6423 295L 21.8211 295L 21.8211 52L 41.6423 52Z"/>
<path id="path1_fill" d="M 188 0L 0 0L 10 113L 178 113L 188 0Z"/>
<path id="path2_stroke_2x" d="M 0 0L 0 -10L -10.924 -10L -9.96107 0.881511L 0 0ZM 188 0L 197.961 0.881511L 198.924 -10L 188 -10L 188 0ZM 178 113L 178 123L 187.154 123L 187.961 113.882L 178 113ZM 10 113L 0.0389288 113.882L 0.845875 123L 10 123L 10 113ZM 0 10L 188 10L 188 -10L 0 -10L 0 10ZM 178.039 -0.881511L 168.039 112.118L 187.961 113.882L 197.961 0.881511L 178.039 -0.881511ZM 178 103L 10 103L 10 123L 178 123L 178 103ZM 19.9611 112.118L 9.96107 -0.881511L -9.96107 0.881511L 0.0389288 113.882L 19.9611 112.118Z"/>
<path id="path3_fill" d="M 254 0L 0 0L 28 316L 226 316L 254 0Z"/>
<path id="path4_stroke_2x" d="M 0 0L 0 -10L -10.9253 -10L -9.96097 0.882618L 0 0ZM 254 0L 263.961 0.882618L 264.925 -10L 254 -10L 254 0ZM 226 316L 226 326L 235.153 326L 235.961 316.883L 226 316ZM 28 316L 18.039 316.883L 18.8469 326L 28 326L 28 316ZM 0 10L 254 10L 254 -10L 0 -10L 0 10ZM 244.039 -0.882618L 216.039 315.117L 235.961 316.883L 263.961 0.882618L 244.039 -0.882618ZM 226 306L 28 306L 28 326L 226 326L 226 306ZM 37.961 315.117L 9.96097 -0.882618L -9.96097 0.882618L 18.039 316.883L 37.961 315.117Z"/>
</defs>
</svg>
