<svg width="227" height="250" viewBox="0 0 227 250" version="1.1" xmlns="http://www.w3.org/2000/svg" xmlns:xlink="http://www.w3.org/1999/xlink" xmlns:figma="http://www.figma.com/figma/ns">
<title>timeIcon</title>
<desc>Created using Figma</desc>
<g id="Canvas" transform="translate(164 187)" figma:type="canvas">
<g id="Group" style="mix-blend-mode:normal;" figma:type="frame">
<g id="Group" style="mix-blend-mode:normal;" figma:type="frame">
<g id="Rectangle" style="mix-blend-mode:normal;" figma:type="vector">
<use xlink:href="#path0_fill" transform="matrix(1 0 0 1 -79.2046 -187)" style="mix-blend-mode:normal;"/>
</g>
<g id="Ellipse" style="mix-blend-mode:normal;" figma:type="ellipse">
<mask id="mask0_outline_ins">
<use xlink:href="#path1_fill" fill="white" transform="matrix(0.707107 0.707107 -0.707107 0.707107 -50.2046 -210.011)"/>
</mask>
<g mask="url(#mask0_outline_ins)">
<use xlink:href="#path2_stroke_2x" transform="matrix(0.707107 0.707107 -0.707107 0.707107 -50.2046 -210.011)" style="mix-blend-mode:normal;"/>
</g>
</g>
</g>
</g>
<g id="Vector" style="mix-blend-mode:normal;" figma:type="vector">
<use xlink:href="#path3_stroke" transform="translate(-51.2046 -127)" style="mix-blend-mode:normal;"/>
</g>
</g>
<defs>
<path id="path0_fill" d="M 0 0L 58 0L 45.7308 33L 12.2692 33L 0 0Z"/>
<path id="path1_fill" d="M 226 113C 226 175.408 175.408 226 113 226C 50.5918 226 0 175.408 0 113C 0 50.5918 50.5918 0 113 0C 175.408 0 226 50.5918 226 113Z"/>
<path id="path2_stroke_2x" d="M 206 113C 206 164.362 164.362 206 113 206L 113 246C 186.454 246 246 186.454 246 113L 206 113ZM 113 206C 61.6375 206 20 164.362 20 113L -20 113C -20 186.454 39.5461 246 113 246L 113 206ZM 20 113C 20 61.6375 61.6375 20 113 20L 113 -20C 39.5461 -20 -20 39.5461 -20 113L 20 113ZM 113 20C 164.362 20 206 61.6375 206 113L 246 113C 246 39.5461 186.454 -20 113 -20L 113 20Z"/>
<path id="path3_stroke" d="M 0 76L -10 76L -10 79.4922L -7.82601 82.2252L 0 76ZM -10 0L -10 76L 10 76L 10 0L -10 0ZM -7.82601 82.2252L 26.3786 125.225L 42.0306 112.775L 7.82601 69.7748L -7.82601 82.2252Z"/>
</defs>
</svg>
